<svg xmlns="http://www.w3.org/2000/svg" xmlns:xlink="http://www.w3.org/1999/xlink" width="63" height="229" viewBox="0 0 63 229">
  <defs>
    <clipPath id="clip-path">
      <rect width="63" height="229" fill="none"/>
    </clipPath>
  </defs>
  <g id="grid" opacity="0.76" clip-path="url(#clip-path)">
    <g transform="translate(-1656 -277)">
      <circle id="Ellipse_2" data-name="Ellipse 2" cx="4" cy="4" r="4" transform="translate(1656 277)" fill="#999" opacity="0.24"/>
    </g>
    <g transform="translate(-1643 -277)">
      <circle id="Ellipse_2-2" data-name="Ellipse 2" cx="4" cy="4" r="4" transform="translate(1656 277)" fill="#999" opacity="0.24"/>
    </g>
    <g transform="translate(-1630 -277)">
      <circle id="Ellipse_2-3" data-name="Ellipse 2" cx="4" cy="4" r="4" transform="translate(1656 277)" fill="#999" opacity="0.24"/>
    </g>
    <g transform="translate(-1617 -277)">
      <circle id="Ellipse_2-4" data-name="Ellipse 2" cx="4" cy="4" r="4" transform="translate(1656 277)" fill="#999" opacity="0.24"/>
    </g>
    <g transform="translate(-1604 -277)">
      <circle id="Ellipse_2-5" data-name="Ellipse 2" cx="4" cy="4" r="4" transform="translate(1656 277)" fill="#999" opacity="0.24"/>
    </g>
    <g transform="translate(-1656 -264)">
      <circle id="Ellipse_2-6" data-name="Ellipse 2" cx="4" cy="4" r="4" transform="translate(1656 277)" fill="#999" opacity="0.24"/>
    </g>
    <g transform="translate(-1643 -264)">
      <circle id="Ellipse_2-7" data-name="Ellipse 2" cx="4" cy="4" r="4" transform="translate(1656 277)" fill="#999" opacity="0.24"/>
    </g>
    <g transform="translate(-1630 -264)">
      <circle id="Ellipse_2-8" data-name="Ellipse 2" cx="4" cy="4" r="4" transform="translate(1656 277)" fill="#999" opacity="0.24"/>
    </g>
    <g transform="translate(-1617 -264)">
      <circle id="Ellipse_2-9" data-name="Ellipse 2" cx="4" cy="4" r="4" transform="translate(1656 277)" fill="#999" opacity="0.24"/>
    </g>
    <g transform="translate(-1604 -264)">
      <circle id="Ellipse_2-10" data-name="Ellipse 2" cx="4" cy="4" r="4" transform="translate(1656 277)" fill="#999" opacity="0.24"/>
    </g>
    <g transform="translate(-1656 -251)">
      <circle id="Ellipse_2-11" data-name="Ellipse 2" cx="4" cy="4" r="4" transform="translate(1656 277)" fill="#999" opacity="0.24"/>
    </g>
    <g transform="translate(-1643 -251)">
      <circle id="Ellipse_2-12" data-name="Ellipse 2" cx="4" cy="4" r="4" transform="translate(1656 277)" fill="#999" opacity="0.24"/>
    </g>
    <g transform="translate(-1630 -251)">
      <circle id="Ellipse_2-13" data-name="Ellipse 2" cx="4" cy="4" r="4" transform="translate(1656 277)" fill="#999" opacity="0.24"/>
    </g>
    <g transform="translate(-1617 -251)">
      <circle id="Ellipse_2-14" data-name="Ellipse 2" cx="4" cy="4" r="4" transform="translate(1656 277)" fill="#999" opacity="0.24"/>
    </g>
    <g transform="translate(-1604 -251)">
      <circle id="Ellipse_2-15" data-name="Ellipse 2" cx="4" cy="4" r="4" transform="translate(1656 277)" fill="#999" opacity="0.24"/>
    </g>
    <g transform="translate(-1656 -238)">
      <circle id="Ellipse_2-16" data-name="Ellipse 2" cx="4" cy="4" r="4" transform="translate(1656 277)" fill="#999" opacity="0.24"/>
    </g>
    <g transform="translate(-1643 -238)">
      <circle id="Ellipse_2-17" data-name="Ellipse 2" cx="4" cy="4" r="4" transform="translate(1656 277)" fill="#999" opacity="0.24"/>
    </g>
    <g transform="translate(-1630 -238)">
      <circle id="Ellipse_2-18" data-name="Ellipse 2" cx="4" cy="4" r="4" transform="translate(1656 277)" fill="#999" opacity="0.24"/>
    </g>
    <g transform="translate(-1617 -238)">
      <circle id="Ellipse_2-19" data-name="Ellipse 2" cx="4" cy="4" r="4" transform="translate(1656 277)" fill="#999" opacity="0.24"/>
    </g>
    <g transform="translate(-1604 -238)">
      <circle id="Ellipse_2-20" data-name="Ellipse 2" cx="4" cy="4" r="4" transform="translate(1656 277)" fill="#999" opacity="0.24"/>
    </g>
    <g transform="translate(-1656 -225)">
      <circle id="Ellipse_2-21" data-name="Ellipse 2" cx="4" cy="4" r="4" transform="translate(1656 277)" fill="#999" opacity="0.24"/>
    </g>
    <g transform="translate(-1643 -225)">
      <circle id="Ellipse_2-22" data-name="Ellipse 2" cx="4" cy="4" r="4" transform="translate(1656 277)" fill="#999" opacity="0.24"/>
    </g>
    <g transform="translate(-1630 -225)">
      <circle id="Ellipse_2-23" data-name="Ellipse 2" cx="4" cy="4" r="4" transform="translate(1656 277)" fill="#999" opacity="0.24"/>
    </g>
    <g transform="translate(-1617 -225)">
      <circle id="Ellipse_2-24" data-name="Ellipse 2" cx="4" cy="4" r="4" transform="translate(1656 277)" fill="#999" opacity="0.24"/>
    </g>
    <g transform="translate(-1604 -225)">
      <circle id="Ellipse_2-25" data-name="Ellipse 2" cx="4" cy="4" r="4" transform="translate(1656 277)" fill="#999" opacity="0.24"/>
    </g>
    <g transform="translate(-1656 -212)">
      <circle id="Ellipse_2-26" data-name="Ellipse 2" cx="4" cy="4" r="4" transform="translate(1656 277)" fill="#999" opacity="0.24"/>
    </g>
    <g transform="translate(-1643 -212)">
      <circle id="Ellipse_2-27" data-name="Ellipse 2" cx="4" cy="4" r="4" transform="translate(1656 277)" fill="#999" opacity="0.24"/>
    </g>
    <g transform="translate(-1630 -212)">
      <circle id="Ellipse_2-28" data-name="Ellipse 2" cx="4" cy="4" r="4" transform="translate(1656 277)" fill="#999" opacity="0.24"/>
    </g>
    <g transform="translate(-1617 -212)">
      <circle id="Ellipse_2-29" data-name="Ellipse 2" cx="4" cy="4" r="4" transform="translate(1656 277)" fill="#999" opacity="0.24"/>
    </g>
    <g transform="translate(-1604 -212)">
      <circle id="Ellipse_2-30" data-name="Ellipse 2" cx="4" cy="4" r="4" transform="translate(1656 277)" fill="#999" opacity="0.24"/>
    </g>
    <g transform="translate(-1656 -199)">
      <circle id="Ellipse_2-31" data-name="Ellipse 2" cx="4" cy="4" r="4" transform="translate(1656 277)" fill="#999" opacity="0.24"/>
    </g>
    <g transform="translate(-1643 -199)">
      <circle id="Ellipse_2-32" data-name="Ellipse 2" cx="4" cy="4" r="4" transform="translate(1656 277)" fill="#999" opacity="0.24"/>
    </g>
    <g transform="translate(-1630 -199)">
      <circle id="Ellipse_2-33" data-name="Ellipse 2" cx="4" cy="4" r="4" transform="translate(1656 277)" fill="#999" opacity="0.24"/>
    </g>
    <g transform="translate(-1617 -199)">
      <circle id="Ellipse_2-34" data-name="Ellipse 2" cx="4" cy="4" r="4" transform="translate(1656 277)" fill="#999" opacity="0.24"/>
    </g>
    <g transform="translate(-1604 -199)">
      <circle id="Ellipse_2-35" data-name="Ellipse 2" cx="4" cy="4" r="4" transform="translate(1656 277)" fill="#999" opacity="0.24"/>
    </g>
    <g transform="translate(-1656 -186)">
      <circle id="Ellipse_2-36" data-name="Ellipse 2" cx="4" cy="4" r="4" transform="translate(1656 277)" fill="#999" opacity="0.24"/>
    </g>
    <g transform="translate(-1643 -186)">
      <circle id="Ellipse_2-37" data-name="Ellipse 2" cx="4" cy="4" r="4" transform="translate(1656 277)" fill="#999" opacity="0.24"/>
    </g>
    <g transform="translate(-1630 -186)">
      <circle id="Ellipse_2-38" data-name="Ellipse 2" cx="4" cy="4" r="4" transform="translate(1656 277)" fill="#999" opacity="0.24"/>
    </g>
    <g transform="translate(-1617 -186)">
      <circle id="Ellipse_2-39" data-name="Ellipse 2" cx="4" cy="4" r="4" transform="translate(1656 277)" fill="#999" opacity="0.24"/>
    </g>
    <g transform="translate(-1604 -186)">
      <circle id="Ellipse_2-40" data-name="Ellipse 2" cx="4" cy="4" r="4" transform="translate(1656 277)" fill="#999" opacity="0.24"/>
    </g>
    <g transform="translate(-1656 -173)">
      <circle id="Ellipse_2-41" data-name="Ellipse 2" cx="4" cy="4" r="4" transform="translate(1656 277)" fill="#999" opacity="0.24"/>
    </g>
    <g transform="translate(-1643 -173)">
      <circle id="Ellipse_2-42" data-name="Ellipse 2" cx="4" cy="4" r="4" transform="translate(1656 277)" fill="#999" opacity="0.24"/>
    </g>
    <g transform="translate(-1630 -173)">
      <circle id="Ellipse_2-43" data-name="Ellipse 2" cx="4" cy="4" r="4" transform="translate(1656 277)" fill="#999" opacity="0.24"/>
    </g>
    <g transform="translate(-1617 -173)">
      <circle id="Ellipse_2-44" data-name="Ellipse 2" cx="4" cy="4" r="4" transform="translate(1656 277)" fill="#999" opacity="0.24"/>
    </g>
    <g transform="translate(-1604 -173)">
      <circle id="Ellipse_2-45" data-name="Ellipse 2" cx="4" cy="4" r="4" transform="translate(1656 277)" fill="#999" opacity="0.24"/>
    </g>
    <g transform="translate(-1656 -160)">
      <circle id="Ellipse_2-46" data-name="Ellipse 2" cx="4" cy="4" r="4" transform="translate(1656 277)" fill="#999" opacity="0.24"/>
    </g>
    <g transform="translate(-1643 -160)">
      <circle id="Ellipse_2-47" data-name="Ellipse 2" cx="4" cy="4" r="4" transform="translate(1656 277)" fill="#999" opacity="0.24"/>
    </g>
    <g transform="translate(-1630 -160)">
      <circle id="Ellipse_2-48" data-name="Ellipse 2" cx="4" cy="4" r="4" transform="translate(1656 277)" fill="#999" opacity="0.24"/>
    </g>
    <g transform="translate(-1617 -160)">
      <circle id="Ellipse_2-49" data-name="Ellipse 2" cx="4" cy="4" r="4" transform="translate(1656 277)" fill="#999" opacity="0.24"/>
    </g>
    <g transform="translate(-1604 -160)">
      <circle id="Ellipse_2-50" data-name="Ellipse 2" cx="4" cy="4" r="4" transform="translate(1656 277)" fill="#999" opacity="0.24"/>
    </g>
    <g transform="translate(-1656 -147)">
      <circle id="Ellipse_2-51" data-name="Ellipse 2" cx="4" cy="4" r="4" transform="translate(1656 277)" fill="#999" opacity="0.24"/>
    </g>
    <g transform="translate(-1643 -147)">
      <circle id="Ellipse_2-52" data-name="Ellipse 2" cx="4" cy="4" r="4" transform="translate(1656 277)" fill="#999" opacity="0.24"/>
    </g>
    <g transform="translate(-1630 -147)">
      <circle id="Ellipse_2-53" data-name="Ellipse 2" cx="4" cy="4" r="4" transform="translate(1656 277)" fill="#999" opacity="0.24"/>
    </g>
    <g transform="translate(-1617 -147)">
      <circle id="Ellipse_2-54" data-name="Ellipse 2" cx="4" cy="4" r="4" transform="translate(1656 277)" fill="#999" opacity="0.24"/>
    </g>
    <g transform="translate(-1604 -147)">
      <circle id="Ellipse_2-55" data-name="Ellipse 2" cx="4" cy="4" r="4" transform="translate(1656 277)" fill="#999" opacity="0.24"/>
    </g>
    <g transform="translate(-1656 -134)">
      <circle id="Ellipse_2-56" data-name="Ellipse 2" cx="4" cy="4" r="4" transform="translate(1656 277)" fill="#999" opacity="0.24"/>
    </g>
    <g transform="translate(-1643 -134)">
      <circle id="Ellipse_2-57" data-name="Ellipse 2" cx="4" cy="4" r="4" transform="translate(1656 277)" fill="#999" opacity="0.24"/>
    </g>
    <g transform="translate(-1630 -134)">
      <circle id="Ellipse_2-58" data-name="Ellipse 2" cx="4" cy="4" r="4" transform="translate(1656 277)" fill="#999" opacity="0.24"/>
    </g>
    <g transform="translate(-1617 -134)">
      <circle id="Ellipse_2-59" data-name="Ellipse 2" cx="4" cy="4" r="4" transform="translate(1656 277)" fill="#999" opacity="0.24"/>
    </g>
    <g transform="translate(-1604 -134)">
      <circle id="Ellipse_2-60" data-name="Ellipse 2" cx="4" cy="4" r="4" transform="translate(1656 277)" fill="#999" opacity="0.24"/>
    </g>
    <g transform="translate(-1656 -121)">
      <circle id="Ellipse_2-61" data-name="Ellipse 2" cx="4" cy="4" r="4" transform="translate(1656 277)" fill="#999" opacity="0.24"/>
    </g>
    <g transform="translate(-1643 -121)">
      <circle id="Ellipse_2-62" data-name="Ellipse 2" cx="4" cy="4" r="4" transform="translate(1656 277)" fill="#999" opacity="0.24"/>
    </g>
    <g transform="translate(-1630 -121)">
      <circle id="Ellipse_2-63" data-name="Ellipse 2" cx="4" cy="4" r="4" transform="translate(1656 277)" fill="#999" opacity="0.24"/>
    </g>
    <g transform="translate(-1617 -121)">
      <circle id="Ellipse_2-64" data-name="Ellipse 2" cx="4" cy="4" r="4" transform="translate(1656 277)" fill="#999" opacity="0.24"/>
    </g>
    <g transform="translate(-1604 -121)">
      <circle id="Ellipse_2-65" data-name="Ellipse 2" cx="4" cy="4" r="4" transform="translate(1656 277)" fill="#999" opacity="0.24"/>
    </g>
    <g transform="translate(-1656 -108)">
      <circle id="Ellipse_2-66" data-name="Ellipse 2" cx="4" cy="4" r="4" transform="translate(1656 277)" fill="#999" opacity="0.24"/>
    </g>
    <g transform="translate(-1643 -108)">
      <circle id="Ellipse_2-67" data-name="Ellipse 2" cx="4" cy="4" r="4" transform="translate(1656 277)" fill="#999" opacity="0.24"/>
    </g>
    <g transform="translate(-1630 -108)">
      <circle id="Ellipse_2-68" data-name="Ellipse 2" cx="4" cy="4" r="4" transform="translate(1656 277)" fill="#999" opacity="0.24"/>
    </g>
    <g transform="translate(-1617 -108)">
      <circle id="Ellipse_2-69" data-name="Ellipse 2" cx="4" cy="4" r="4" transform="translate(1656 277)" fill="#999" opacity="0.24"/>
    </g>
    <g transform="translate(-1604 -108)">
      <circle id="Ellipse_2-70" data-name="Ellipse 2" cx="4" cy="4" r="4" transform="translate(1656 277)" fill="#999" opacity="0.24"/>
    </g>
    <g transform="translate(-1656 -95)">
      <circle id="Ellipse_2-71" data-name="Ellipse 2" cx="4" cy="4" r="4" transform="translate(1656 277)" fill="#999" opacity="0.24"/>
    </g>
    <g transform="translate(-1643 -95)">
      <circle id="Ellipse_2-72" data-name="Ellipse 2" cx="4" cy="4" r="4" transform="translate(1656 277)" fill="#999" opacity="0.24"/>
    </g>
    <g transform="translate(-1630 -95)">
      <circle id="Ellipse_2-73" data-name="Ellipse 2" cx="4" cy="4" r="4" transform="translate(1656 277)" fill="#999" opacity="0.24"/>
    </g>
    <g transform="translate(-1617 -95)">
      <circle id="Ellipse_2-74" data-name="Ellipse 2" cx="4" cy="4" r="4" transform="translate(1656 277)" fill="#999" opacity="0.24"/>
    </g>
    <g transform="translate(-1604 -95)">
      <circle id="Ellipse_2-75" data-name="Ellipse 2" cx="4" cy="4" r="4" transform="translate(1656 277)" fill="#999" opacity="0.24"/>
    </g>
    <g transform="translate(-1656 -82)">
      <circle id="Ellipse_2-76" data-name="Ellipse 2" cx="4" cy="4" r="4" transform="translate(1656 277)" fill="#999" opacity="0.24"/>
    </g>
    <g transform="translate(-1643 -82)">
      <circle id="Ellipse_2-77" data-name="Ellipse 2" cx="4" cy="4" r="4" transform="translate(1656 277)" fill="#999" opacity="0.24"/>
    </g>
    <g transform="translate(-1630 -82)">
      <circle id="Ellipse_2-78" data-name="Ellipse 2" cx="4" cy="4" r="4" transform="translate(1656 277)" fill="#999" opacity="0.24"/>
    </g>
    <g transform="translate(-1617 -82)">
      <circle id="Ellipse_2-79" data-name="Ellipse 2" cx="4" cy="4" r="4" transform="translate(1656 277)" fill="#999" opacity="0.24"/>
    </g>
    <g transform="translate(-1604 -82)">
      <circle id="Ellipse_2-80" data-name="Ellipse 2" cx="4" cy="4" r="4" transform="translate(1656 277)" fill="#999" opacity="0.24"/>
    </g>
    <g transform="translate(-1656 -69)">
      <circle id="Ellipse_2-81" data-name="Ellipse 2" cx="4" cy="4" r="4" transform="translate(1656 277)" fill="#999" opacity="0.24"/>
    </g>
    <g transform="translate(-1643 -69)">
      <circle id="Ellipse_2-82" data-name="Ellipse 2" cx="4" cy="4" r="4" transform="translate(1656 277)" fill="#999" opacity="0.24"/>
    </g>
    <g transform="translate(-1630 -69)">
      <circle id="Ellipse_2-83" data-name="Ellipse 2" cx="4" cy="4" r="4" transform="translate(1656 277)" fill="#999" opacity="0.24"/>
    </g>
    <g transform="translate(-1617 -69)">
      <circle id="Ellipse_2-84" data-name="Ellipse 2" cx="4" cy="4" r="4" transform="translate(1656 277)" fill="#999" opacity="0.24"/>
    </g>
    <g transform="translate(-1604 -69)">
      <circle id="Ellipse_2-85" data-name="Ellipse 2" cx="4" cy="4" r="4" transform="translate(1656 277)" fill="#999" opacity="0.24"/>
    </g>
    <g transform="translate(-1656 -56)">
      <circle id="Ellipse_2-86" data-name="Ellipse 2" cx="4" cy="4" r="4" transform="translate(1656 277)" fill="#999" opacity="0.24"/>
    </g>
    <g transform="translate(-1643 -56)">
      <circle id="Ellipse_2-87" data-name="Ellipse 2" cx="4" cy="4" r="4" transform="translate(1656 277)" fill="#999" opacity="0.24"/>
    </g>
    <g transform="translate(-1630 -56)">
      <circle id="Ellipse_2-88" data-name="Ellipse 2" cx="4" cy="4" r="4" transform="translate(1656 277)" fill="#999" opacity="0.24"/>
    </g>
    <g transform="translate(-1617 -56)">
      <circle id="Ellipse_2-89" data-name="Ellipse 2" cx="4" cy="4" r="4" transform="translate(1656 277)" fill="#999" opacity="0.24"/>
    </g>
    <g transform="translate(-1604 -56)">
      <circle id="Ellipse_2-90" data-name="Ellipse 2" cx="4" cy="4" r="4" transform="translate(1656 277)" fill="#999" opacity="0.24"/>
    </g>
  </g>
</svg>
